# xmcd
#
# Track frame offsets:
#	150
#	10395
#	22544
#	34031
#	46716
#	59354
#	70834
#	83674
#	95015
#	107045
#	118175
#	129828
#	140537
#	153452
#
# Disc length: 2212 seconds
#
# Revision: 1
# Processed by: cddbd v1.5.2PL0 Copyright (c) Steve Scherf et al.
# Submitted via: audiograbber 1.83.01
#
DISCID=ab08a20e
DTITLE=Ray Charles - Early Hits
DYEAR=2007
DGENRE=Blues
TTITLE0=Aint That Fine
TTITLE1=Honey Honey
TTITLE2=Ray Charles Blues
TTITLE3=Goin Down Slow
TTITLE4=You Always Miss The Water
TTITLE5=Sentimental Blues
TTITLE6=Dont Put Your Dreams
TTITLE7=Jack Shes On The Ball
TTITLE8=St Pete Florida
TTITLE9=Lets Have A Ball
TTITLE10=If I Give You My Love
TTITLE11=Sitting On Top Of The World
TTITLE12=Can Anyone Ask For More
TTITLE13=Rockin Chair Blues
EXTD=
EXTT0=
EXTT1=
EXTT2=
EXTT3=
EXTT4=
EXTT5=
EXTT6=
EXTT7=
EXTT8=
EXTT9=
EXTT10=
EXTT11=
EXTT12=
EXTT13=
PLAYORDER=
